<svg width="70" height="70" viewBox="0 0 70 70" fill="none" xmlns="http://www.w3.org/2000/svg">
<path d="M14.8917 55.1083C12.3749 52.5916 14.0442 47.3079 12.7632 44.2119C11.4353 41.0024 6.5625 38.4193 6.5625 34.9999C6.5625 31.5805 11.4353 28.9975 12.7632 25.7881C14.0442 22.6921 12.3749 17.4084 14.8917 14.8917C17.4084 12.3749 22.6921 14.0442 25.7881 12.7632C28.9976 11.4353 31.5807 6.5625 35.0001 6.5625C38.4195 6.5625 41.0025 11.4353 44.2119 12.7632C47.3079 14.0442 52.5916 12.3749 55.1083 14.8917C57.6251 17.4084 55.9558 22.6921 57.2368 25.7881C58.5647 28.9976 63.4375 31.5807 63.4375 35.0001C63.4375 38.4195 58.5647 41.0025 57.2368 44.2119C55.9558 47.3079 57.6251 52.5916 55.1083 55.1083C52.5916 57.6251 47.3079 55.9558 44.2119 57.2368C41.0024 58.5647 38.4193 63.4375 34.9999 63.4375C31.5805 63.4375 28.9975 58.5647 25.7881 57.2368C22.6921 55.9558 17.4084 57.6251 14.8917 55.1083Z" stroke="#4169C1" stroke-width="3" stroke-linecap="round" stroke-linejoin="round"/>
<path d="M47.0312 28.4375L30.9895 43.75L22.9688 36.0938" stroke="#4169C1" stroke-width="3" stroke-linecap="round" stroke-linejoin="round"/>
</svg>
