<svg width="70" height="70" viewBox="0 0 70 70" fill="none" xmlns="http://www.w3.org/2000/svg">
<path d="M24.0628 63.4375H45.9378" stroke="#4169C1" stroke-width="3" stroke-linecap="round" stroke-linejoin="round"/>
<path d="M21.8662 45.9324C19.1666 43.9087 16.9725 41.2871 15.456 38.2731C13.9395 35.2592 13.1419 31.9349 13.1256 28.5611C13.0601 16.7042 22.619 6.84783 34.4728 6.56883C39.1123 6.45719 43.6672 7.82389 47.4788 10.4714C51.2904 13.1188 54.1613 16.9099 55.6765 21.2964C57.1917 25.683 57.2726 30.4377 55.9076 34.8733C54.5425 39.3088 51.8022 43.1954 48.0829 45.971C47.4127 46.4784 46.87 47.1349 46.4976 47.8885C46.1253 48.6421 45.9337 49.4721 45.9379 50.3126V50.3127C45.9379 50.8928 45.7074 51.4492 45.2971 51.8594C44.8869 52.2697 44.3305 52.5001 43.7504 52.5001H26.2502C25.6701 52.5001 25.1137 52.2697 24.7034 51.8594C24.2932 51.4492 24.0627 50.8929 24.0627 50.3127V50.2507C24.057 49.4098 23.8556 48.5818 23.4743 47.8322C23.0931 47.0827 22.5425 46.4322 21.8662 45.9324V45.9324Z" stroke="#4169C1" stroke-width="3" stroke-linecap="round" stroke-linejoin="round"/>
<path d="M44.6001 26.2497C44.1867 24.4421 43.2719 22.7878 41.9608 21.4767C40.6497 20.1656 38.9954 19.2509 37.1879 18.8375" stroke="#4169C1" stroke-width="3" stroke-linecap="round" stroke-linejoin="round"/>
</svg>
