<svg width="49" height="46" viewBox="0 0 49 46" fill="none" xmlns="http://www.w3.org/2000/svg">
<path d="M13.5 45.5078L20 45.5078L6.5 23.5078L1.59523e-08 23.5078L13.5 45.5078Z" fill="#EFA56E"/>
<path d="M35.0156 0.492189L28.5156 0.492188L42.0156 22.4922L48.5156 22.4922L35.0156 0.492189Z" fill="#044079"/>
<path d="M21 45.5078L27.5 45.5078L14 23.5078L7.5 23.5078L21 45.5078Z" fill="#DB8241"/>
<path d="M27.5156 0.492189L21.0156 0.492188L34.5156 22.4922L41.0156 22.4922L27.5156 0.492189Z" fill="#10579A"/>
<path d="M28.5 45.5078L35 45.5078L21.5 23.5078L15 23.5078L28.5 45.5078Z" fill="#CD6F2A"/>
<path d="M20.0156 0.492189L13.5156 0.492188L27.0156 22.4922L33.5156 22.4922L20.0156 0.492189Z" fill="#246DB1"/>
<path d="M36.0389 45.5234L22.4935 23.5L35.3477 23.5L48.5156 23.5L36.0389 45.5234Z" fill="#B85915"/>
<path d="M12.4768 0.476563L26.0222 22.5L13.1679 22.5L-1.92535e-06 22.5L12.4768 0.476563Z" fill="#4B8BC7"/>
</svg>
