<svg width="70" height="70" viewBox="0 0 70 70" fill="none" xmlns="http://www.w3.org/2000/svg">
<path d="M63.4375 17.5H6.5625C5.35438 17.5 4.375 18.4794 4.375 19.6875V50.3125C4.375 51.5206 5.35438 52.5 6.5625 52.5H63.4375C64.6456 52.5 65.625 51.5206 65.625 50.3125V19.6875C65.625 18.4794 64.6456 17.5 63.4375 17.5Z" stroke="#4169C1" stroke-width="3" stroke-linecap="round" stroke-linejoin="round"/>
<path d="M35 42.6562C39.2284 42.6562 42.6562 39.2284 42.6562 35C42.6562 30.7716 39.2284 27.3438 35 27.3438C30.7716 27.3438 27.3438 30.7716 27.3438 35C27.3438 39.2284 30.7716 42.6562 35 42.6562Z" stroke="#4169C1" stroke-width="3" stroke-linecap="round" stroke-linejoin="round"/>
<path d="M45.9375 17.5L65.625 35" stroke="#4169C1" stroke-width="3" stroke-linecap="round" stroke-linejoin="round"/>
<path d="M45.9375 52.5L65.625 35" stroke="#4169C1" stroke-width="3" stroke-linecap="round" stroke-linejoin="round"/>
<path d="M24.0625 17.5L4.375 35" stroke="#4169C1" stroke-width="3" stroke-linecap="round" stroke-linejoin="round"/>
<path d="M24.0625 52.5L4.375 35" stroke="#4169C1" stroke-width="3" stroke-linecap="round" stroke-linejoin="round"/>
</svg>
