<svg width="70" height="70" viewBox="0 0 70 70" fill="none" xmlns="http://www.w3.org/2000/svg">
<path d="M8.74927 28.4375H21.8743V56.875H8.74927C8.16911 56.875 7.61271 56.6445 7.20247 56.2343C6.79224 55.8241 6.56177 55.2677 6.56177 54.6875V30.625C6.56177 30.0448 6.79224 29.4884 7.20247 29.0782C7.61271 28.668 8.16911 28.4375 8.74927 28.4375V28.4375Z" stroke="#4169C1" stroke-width="3" stroke-linecap="round" stroke-linejoin="round"/>
<path d="M21.8743 28.4375L32.8118 6.5625C33.9608 6.5625 35.0986 6.78883 36.1602 7.22855C37.2218 7.66828 38.1864 8.3128 38.999 9.12532C39.8115 9.93783 40.456 10.9024 40.8957 11.964C41.3354 13.0256 41.5618 14.1634 41.5618 15.3125V21.875H58.4808C59.1012 21.875 59.7144 22.0069 60.2799 22.262C60.8454 22.5171 61.3501 22.8896 61.7607 23.3546C62.1712 23.8197 62.4782 24.3667 62.6612 24.9595C62.8442 25.5522 62.899 26.1771 62.8221 26.7927L59.5408 53.0427C59.4085 54.1008 58.8944 55.0741 58.095 55.7798C57.2956 56.4856 56.2659 56.875 55.1996 56.875H21.8743" stroke="#4169C1" stroke-width="3" stroke-linecap="round" stroke-linejoin="round"/>
</svg>
