<svg width="70" height="70" viewBox="0 0 70 70" fill="none" xmlns="http://www.w3.org/2000/svg">
<path d="M49.2188 43.75C51.635 43.75 53.5938 41.7912 53.5938 39.375C53.5938 36.9588 51.635 35 49.2188 35C46.8025 35 44.8438 36.9588 44.8438 39.375C44.8438 41.7912 46.8025 43.75 49.2188 43.75Z" fill="#4169C1"/>
<path d="M10.9376 18.5938V52.5C10.9376 53.6603 11.3985 54.7731 12.219 55.5936C13.0394 56.4141 14.1522 56.875 15.3126 56.875H59.0626C59.6427 56.875 60.1991 56.6445 60.6094 56.2343C61.0196 55.8241 61.2501 55.2677 61.2501 54.6875V26.25C61.2501 25.6698 61.0196 25.1134 60.6094 24.7032C60.1991 24.293 59.6427 24.0625 59.0626 24.0625H16.5374C13.572 24.0625 11.0465 21.7566 10.9411 18.7932C10.9143 18.0587 11.0359 17.3264 11.2984 16.6399C11.561 15.9535 11.9593 15.327 12.4694 14.7979C12.9796 14.2689 13.5911 13.848 14.2675 13.5606C14.9439 13.2732 15.6713 13.125 16.4063 13.125H52.5001" stroke="#4169C1" stroke-width="3" stroke-linecap="round" stroke-linejoin="round"/>
</svg>
